
<svg
   xmlns:dc="http://purl.org/dc/elements/1.1/"
   xmlns:cc="http://creativecommons.org/ns#"
   xmlns:rdf="http://www.w3.org/1999/02/22-rdf-syntax-ns#"
   xmlns:svg="http://www.w3.org/2000/svg"
   xmlns="http://www.w3.org/2000/svg"
   xmlns:sodipodi="http://sodipodi.sourceforge.net/DTD/sodipodi-0.dtd"
   xmlns:inkscape="http://www.inkscape.org/namespaces/inkscape"
   version="1.1"
   id="svg2"
   width="200"
   height="200"
   viewBox="0 0 200 200"
   sodipodi:docname="logo-security-chat-app.svg"
   inkscape:version="1.0.2-2 (e86c870879, 2021-01-15)">
  <metadata
     id="metadata8">
    <rdf:RDF>
      <cc:Work
         rdf:about="">
        <dc:format>image/svg+xml</dc:format>
        <dc:type
           rdf:resource="http://purl.org/dc/dcmitype/StillImage" />
      </cc:Work>
    </rdf:RDF>
  </metadata>
  <defs
     id="defs6" />
  <sodipodi:namedview
     pagecolor="#505050"
     bordercolor="#eeeeee"
     borderopacity="1"
     objecttolerance="10"
     gridtolerance="10"
     guidetolerance="10"
     inkscape:pageopacity="0"
     inkscape:pageshadow="2"
     inkscape:window-width="1920"
     inkscape:window-height="991"
     id="namedview4"
     showgrid="false"
     inkscape:zoom="4"
     inkscape:cx="99.353978"
     inkscape:cy="85.552118"
     inkscape:window-x="-9"
     inkscape:window-y="-9"
     inkscape:window-maximized="1"
     inkscape:current-layer="g14" />
  <g
     inkscape:groupmode="layer"
     inkscape:label="Image"
     id="g10">
    <g
       id="g14"
       transform="matrix(1.8934538,0,0,1.8934538,-219.10998,-94.911587)">
      <path
         style="fill:#0000ff;fill-opacity:1"
         d="m 145.72801,104.67683 c -5.68223,-7.755624 -5.71354,-8.103381 -1.30744,-14.52184 2.47329,-3.602896 4.76266,-5.846721 6.17046,-6.047712 3.16798,-0.45229 2.96583,3.162131 -0.45275,8.095151 -2.40178,3.465761 -2.54391,4.116395 -1.32242,6.053751 3.56352,5.652 4.30904,7.45786 3.71641,9.00223 -1.07782,2.80876 -3.53917,1.8749 -6.80426,-2.58158 z m 15.4042,2.59706 c -0.34887,-0.90912 0.93081,-6.42162 2.84373,-12.250004 2.89837,-8.830911 3.84338,-10.650412 5.67015,-10.917194 3.62579,-0.529509 3.56602,2.167467 -0.30552,13.786229 -3.00314,9.012619 -4.03364,11.033909 -5.62537,11.033909 -1.07178,0 -2.23413,-0.74382 -2.58299,-1.65294 z m 20.02242,0.0584 c -0.61624,-1.60588 0.11102,-3.40395 3.63967,-8.998672 1.15749,-1.835206 0.9945,-2.572479 -1.32242,-5.982135 -5.53373,-8.14362 -1.33177,-12.077967 4.45865,-4.174684 5.68173,7.754934 5.71331,8.104585 1.31076,14.509771 -4.10305,5.96944 -6.95089,7.6055 -8.08666,4.64572 z"
         id="path22" />
      <path
         style="fill:#ff0000;fill-opacity:1"
         d="m 161.41054,151.86019 c -7.439,-4.266 -18.1004,-15.14593 -22.96269,-23.43336 -2.25882,-3.85 -5.33755,-10.6 -6.84161,-15 -2.55031,-7.46068 -2.76389,-9.38756 -3.16808,-28.582478 l -0.43342,-20.582477 19.41735,-6.71743 19.41735,-6.71743 19.44297,6.546119 c 10.69363,3.600365 19.60646,6.547823 19.8063,6.549907 0.19984,0.0021 0.16695,9.341288 -0.0731,20.753788 -0.40751,19.374601 -0.61771,21.280281 -3.17111,28.750001 -5.34503,15.63639 -15.51313,28.95079 -28.53906,37.36985 -3.51458,2.27158 -6.65788,4.12593 -6.98511,4.12077 -0.32723,-0.005 -2.98664,-1.38093 -5.90979,-3.05726 z m 4.81483,-16.23336 c 0,-7.4927 -0.40672,-11.70672 -1.20714,-12.50714 -0.94286,-0.94286 -0.83339,-1.5809 0.5,-2.91429 1.60952,-1.60952 1.80476,-1.60952 3.41428,0 1.33339,1.33339 1.44286,1.97143 0.5,2.91429 -1.12161,1.12161 -1.87337,23.80714 -0.78893,23.80714 3.02169,0 3.58179,-1.53132 3.58179,-9.79254 0,-7.3882 0.29682,-8.89451 2.1391,-10.85552 1.1765,-1.25233 2.65229,-3.30634 3.27953,-4.56445 1.46045,-2.92937 3.98702,-2.95181 4.40071,-0.0391 0.22838,1.60794 -0.35302,2.50402 -2.0411,3.14582 -4.14156,1.57462 -4.88996,3.4157 -4.57392,11.25192 l 0.29568,7.33113 5.73547,-5.83389 c 7.18529,-7.30861 11.83116,-14.89998 15.39343,-25.15297 2.55353,-7.34961 2.80752,-9.44484 3.16709,-26.126583 l 0.39091,-18.136182 -11.34345,-3.760779 c -6.2389,-2.068428 -11.90595,-3.967791 -12.59345,-4.220806 -0.8769,-0.32272 -1.25,0.816939 -1.25,3.81822 0,4.702344 2.12872,7.935729 5.22454,7.935729 1.41133,0 1.83057,0.588713 1.59501,2.239784 -0.39895,2.796323 -3.59173,3.570821 -4.46917,1.084123 -0.35396,-1.003149 -1.67529,-2.948907 -2.93629,-4.323907 -1.61042,-1.756023 -2.38517,-3.985278 -2.6034,-7.491006 -0.23705,-3.808068 -0.72546,-5.069769 -2.06069,-5.323324 -1.52931,-0.29041 -1.74807,0.528174 -1.73469,6.491006 0.008,3.752828 0.41679,7.457516 0.90748,8.23264 1.23272,1.947273 0.22523,4.090684 -1.92279,4.090684 -2.13513,0 -3.48975,-2.910255 -2.03278,-4.367217 0.56803,-0.568031 1.03278,-4.125779 1.03278,-7.906107 0,-6.006496 -0.2207,-6.831235 -1.75,-6.539583 -1.31181,0.250173 -1.88081,1.631522 -2.27242,5.516619 -0.32925,3.266514 -1.29096,6.03578 -2.60098,7.489583 -1.14322,1.268688 -2.36927,3.127463 -2.72456,4.130612 -0.88055,2.486167 -4.07263,1.712257 -4.47159,-1.084123 -0.22604,-1.584333 0.18988,-2.239784 1.42126,-2.239784 3.25456,0 5.39829,-3.039896 5.39829,-7.654988 0,-2.389756 -0.3375,-4.317455 -0.75,-4.283774 -0.4125,0.03368 -5.925,1.758367 -12.25,3.832634 l -11.5,3.771395 0.0349,18.417366 c 0.0332,17.530318 0.16923,18.802218 2.82363,26.407768 3.5833,10.26708 8.23033,17.85416 15.40599,25.15297 l 5.73547,5.83389 0.29567,-7.33113 c 0.31483,-7.80589 -0.43681,-9.67899 -4.50458,-11.22555 -2.28402,-0.86839 -3.1589,-4.26621 -1.38134,-5.36481 1.52244,-0.94091 4.09025,0.55128 4.09025,2.3769 0,0.94529 1.15036,2.79941 2.55637,4.12028 2.37527,2.23146 2.54249,2.97841 2.36053,10.54415 -0.20543,8.54195 0.26721,10.4029 2.64212,10.4029 1.16963,0 1.44098,-2.12791 1.44098,-11.3 z"
         id="path16" />
    </g>
  </g>
</svg>